<svg width="15" height="15" viewBox="0 0 15 15" fill="none" xmlns="http://www.w3.org/2000/svg">
<path d="M14 4H11.5V5H14V8H10.5V9H12V10.071C11.5287 10.1927 11.1179 10.4821 10.8447 10.885C10.5715 11.2879 10.4546 11.7766 10.5159 12.2595C10.5773 12.7424 10.8126 13.1864 11.1779 13.5082C11.5431 13.83 12.0132 14.0075 12.5 14.0075C12.9868 14.0075 13.4569 13.83 13.8221 13.5082C14.1874 13.1864 14.4227 12.7424 14.4841 12.2595C14.5454 11.7766 14.4285 11.2879 14.1553 10.885C13.8821 10.4821 13.4713 10.1927 13 10.071V9H14C14.2651 8.9996 14.5192 8.89412 14.7067 8.70667C14.8941 8.51922 14.9996 8.26509 15 8V5C14.9997 4.73486 14.8943 4.48066 14.7068 4.29319C14.5193 4.10571 14.2651 4.00026 14 4ZM13.5 12C13.5 12.1978 13.4414 12.3911 13.3315 12.5556C13.2216 12.72 13.0654 12.8482 12.8827 12.9239C12.7 12.9996 12.4989 13.0194 12.3049 12.9808C12.1109 12.9422 11.9328 12.847 11.7929 12.7071C11.653 12.5673 11.5578 12.3891 11.5192 12.1951C11.4806 12.0011 11.5004 11.8 11.5761 11.6173C11.6518 11.4346 11.78 11.2784 11.9444 11.1685C12.1089 11.0586 12.3022 11 12.5 11C12.7651 11.0004 13.0192 11.1059 13.2067 11.2933C13.3941 11.4808 13.4996 11.7349 13.5 12Z" fill="#856385"/>
<path d="M9 2H6.5V3H9V6H5.5V7H7V10.071C6.52868 10.1927 6.11791 10.4821 5.8447 10.885C5.5715 11.2879 5.45461 11.7766 5.51595 12.2595C5.57728 12.7424 5.81264 13.1864 6.17789 13.5082C6.54314 13.83 7.01322 14.0075 7.5 14.0075C7.98679 14.0075 8.45687 13.83 8.82212 13.5082C9.18737 13.1864 9.42273 12.7424 9.48406 12.2595C9.5454 11.7766 9.42851 11.2879 9.15531 10.885C8.8821 10.4821 8.47133 10.1927 8 10.071V7H9C9.26514 6.99974 9.51934 6.89429 9.70682 6.70681C9.8943 6.51934 9.99974 6.26514 10 6V3C9.99974 2.73486 9.8943 2.48066 9.70682 2.29319C9.51934 2.10571 9.26514 2.00026 9 2ZM8.5 12C8.5 12.1978 8.44136 12.3911 8.33147 12.5556C8.22159 12.72 8.06541 12.8482 7.88269 12.9239C7.69996 12.9996 7.4989 13.0194 7.30491 12.9808C7.11093 12.9422 6.93275 12.847 6.7929 12.7071C6.65305 12.5673 6.5578 12.3891 6.51922 12.1951C6.48063 12.0011 6.50044 11.8 6.57613 11.6173C6.65181 11.4346 6.77999 11.2784 6.94443 11.1685C7.10888 11.0586 7.30222 11 7.5 11C7.7651 11.0004 8.01922 11.1059 8.20667 11.2933C8.39412 11.4808 8.49961 11.7349 8.5 12Z" fill="#856385"/>
<path d="M4 0H1C0.734865 0.000264738 0.480665 0.105707 0.293186 0.293186C0.105707 0.480665 0.000264738 0.734865 0 1V4C0.000264738 4.26514 0.105707 4.51934 0.293186 4.70681C0.480665 4.89429 0.734865 4.99974 1 5H2V10.071C1.52867 10.1927 1.11791 10.4821 0.844699 10.885C0.571493 11.2879 0.454603 11.7766 0.515941 12.2595C0.577278 12.7424 0.812631 13.1864 1.17788 13.5082C1.54314 13.83 2.01321 14.0075 2.5 14.0075C2.98679 14.0075 3.45686 13.83 3.82212 13.5082C4.18737 13.1864 4.42272 12.7424 4.48406 12.2595C4.5454 11.7766 4.42851 11.2879 4.1553 10.885C3.88209 10.4821 3.47133 10.1927 3 10.071V5H4C4.26514 4.99974 4.51934 4.89429 4.70681 4.70681C4.89429 4.51934 4.99974 4.26514 5 4V1C4.99974 0.734865 4.89429 0.480665 4.70681 0.293186C4.51934 0.105707 4.26514 0.000264738 4 0ZM3.5 12C3.5 12.1978 3.44135 12.3911 3.33147 12.5556C3.22159 12.72 3.06541 12.8482 2.88268 12.9239C2.69996 12.9996 2.49889 13.0194 2.30491 12.9808C2.11093 12.9422 1.93275 12.847 1.79289 12.7071C1.65304 12.5673 1.5578 12.3891 1.51921 12.1951C1.48063 12.0011 1.50043 11.8 1.57612 11.6173C1.65181 11.4346 1.77998 11.2784 1.94443 11.1685C2.10888 11.0586 2.30222 11 2.5 11C2.76514 11.0003 3.01934 11.1057 3.20681 11.2932C3.39429 11.4807 3.49974 11.7349 3.5 12ZM1 4V1H4L4.001 4H1Z" fill="#856385"/>
</svg>
