<svg width="16" height="15" viewBox="0 0 16 15" fill="none" xmlns="http://www.w3.org/2000/svg">
<path d="M15.6682 7.37958L8.84891 0.614057L8.39182 0.160336C8.28768 0.057638 8.14683 0 8.00003 0C7.85323 0 7.71239 0.057638 7.60824 0.160336L0.331861 7.37958C0.225143 7.4851 0.140803 7.61077 0.0838179 7.74918C0.0268328 7.88758 -0.0016424 8.03591 7.31515e-05 8.18542C0.00713246 8.80206 0.524227 9.29432 1.14545 9.29432H1.8955V15H14.1046V9.29432H14.8705C15.1723 9.29432 15.4564 9.17695 15.67 8.96498C15.7751 8.86094 15.8584 8.73723 15.9151 8.60101C15.9717 8.4648 16.0006 8.31877 16 8.17141C16 7.8736 15.8817 7.59155 15.6682 7.37958ZM8.98833 13.7387H7.01173V10.165H8.98833V13.7387ZM12.8339 8.03301V13.7387H10.1178V9.74454C10.1178 9.35739 9.80192 9.04381 9.41189 9.04381H6.58817C6.19814 9.04381 5.88224 9.35739 5.88224 9.74454V13.7387H3.16617V8.03301H1.47194L8.0018 1.55654L8.40947 1.96121L14.5299 8.03301H12.8339Z" fill="white"/>
</svg>
