<svg width="21" height="20" viewBox="0 0 21 20" fill="none" xmlns="http://www.w3.org/2000/svg">
<path d="M15.75 9.375H13.7812C13.0851 9.375 12.4174 9.11161 11.9251 8.64277C11.4328 8.17393 11.1562 7.53804 11.1562 6.875V5C11.1562 4.33696 11.4328 3.70107 11.9251 3.23223C12.4174 2.76339 13.0851 2.5 13.7812 2.5H15.75C16.4462 2.5 17.1139 2.76339 17.6062 3.23223C18.0984 3.70107 18.375 4.33696 18.375 5V6.875C18.375 7.53804 18.0984 8.17393 17.6062 8.64277C17.1139 9.11161 16.4462 9.375 15.75 9.375ZM13.7812 3.75C13.4332 3.75 13.0993 3.8817 12.8532 4.11612C12.607 4.35054 12.4688 4.66848 12.4688 5V6.875C12.4688 7.20652 12.607 7.52446 12.8532 7.75888C13.0993 7.9933 13.4332 8.125 13.7812 8.125H15.75C16.0981 8.125 16.4319 7.9933 16.6781 7.75888C16.9242 7.52446 17.0625 7.20652 17.0625 6.875V5C17.0625 4.66848 16.9242 4.35054 16.6781 4.11612C16.4319 3.8817 16.0981 3.75 15.75 3.75H13.7812Z" fill="#714A72"/>
<path d="M7.21875 9.375H5.25C4.55381 9.375 3.88613 9.11161 3.39384 8.64277C2.90156 8.17393 2.625 7.53804 2.625 6.875V5C2.625 4.33696 2.90156 3.70107 3.39384 3.23223C3.88613 2.76339 4.55381 2.5 5.25 2.5H7.21875C7.91494 2.5 8.58262 2.76339 9.07491 3.23223C9.56719 3.70107 9.84375 4.33696 9.84375 5V6.875C9.84375 7.53804 9.56719 8.17393 9.07491 8.64277C8.58262 9.11161 7.91494 9.375 7.21875 9.375ZM5.25 3.75C4.9019 3.75 4.56806 3.8817 4.32192 4.11612C4.07578 4.35054 3.9375 4.66848 3.9375 5V6.875C3.9375 7.20652 4.07578 7.52446 4.32192 7.75888C4.56806 7.9933 4.9019 8.125 5.25 8.125H7.21875C7.56685 8.125 7.90069 7.9933 8.14683 7.75888C8.39297 7.52446 8.53125 7.20652 8.53125 6.875V5C8.53125 4.66848 8.39297 4.35054 8.14683 4.11612C7.90069 3.8817 7.56685 3.75 7.21875 3.75H5.25Z" fill="#714A72"/>
<path d="M7.21875 17.5H5.25C4.55381 17.5 3.88613 17.2366 3.39384 16.7678C2.90156 16.2989 2.625 15.663 2.625 15V13.125C2.625 12.462 2.90156 11.8261 3.39384 11.3572C3.88613 10.8884 4.55381 10.625 5.25 10.625H7.21875C7.91494 10.625 8.58262 10.8884 9.07491 11.3572C9.56719 11.8261 9.84375 12.462 9.84375 13.125V15C9.84375 15.663 9.56719 16.2989 9.07491 16.7678C8.58262 17.2366 7.91494 17.5 7.21875 17.5ZM5.25 11.875C4.9019 11.875 4.56806 12.0067 4.32192 12.2411C4.07578 12.4755 3.9375 12.7935 3.9375 13.125V15C3.9375 15.3315 4.07578 15.6495 4.32192 15.8839C4.56806 16.1183 4.9019 16.25 5.25 16.25H7.21875C7.56685 16.25 7.90069 16.1183 8.14683 15.8839C8.39297 15.6495 8.53125 15.3315 8.53125 15V13.125C8.53125 12.7935 8.39297 12.4755 8.14683 12.2411C7.90069 12.0067 7.56685 11.875 7.21875 11.875H5.25Z" fill="#714A72"/>
<path d="M15.75 17.5H13.7812C13.0851 17.5 12.4174 17.2366 11.9251 16.7678C11.4328 16.2989 11.1562 15.663 11.1562 15V13.125C11.1562 12.462 11.4328 11.8261 11.9251 11.3572C12.4174 10.8884 13.0851 10.625 13.7812 10.625H15.75C16.4462 10.625 17.1139 10.8884 17.6062 11.3572C18.0984 11.8261 18.375 12.462 18.375 13.125V15C18.375 15.663 18.0984 16.2989 17.6062 16.7678C17.1139 17.2366 16.4462 17.5 15.75 17.5ZM13.7812 11.875C13.4332 11.875 13.0993 12.0067 12.8532 12.2411C12.607 12.4755 12.4688 12.7935 12.4688 13.125V15C12.4688 15.3315 12.607 15.6495 12.8532 15.8839C13.0993 16.1183 13.4332 16.25 13.7812 16.25H15.75C16.0981 16.25 16.4319 16.1183 16.6781 15.8839C16.9242 15.6495 17.0625 15.3315 17.0625 15V13.125C17.0625 12.7935 16.9242 12.4755 16.6781 12.2411C16.4319 12.0067 16.0981 11.875 15.75 11.875H13.7812Z" fill="#714A72"/>
</svg>
